<?xml version="1.0" encoding="us-ascii" standalone="no"?><svg xmlns="http://www.w3.org/2000/svg" xmlns:xlink="http://www.w3.org/1999/xlink" contentStyleType="text/css" height="778px" preserveAspectRatio="none" style="width:813px;height:778px;background:#FFFFFF;" version="1.1" viewBox="0 0 813 778" width="813px" zoomAndPan="magnify"><defs/><g><rect fill="none" height="143.5313" style="stroke:#000000;stroke-width:1.5;" width="211" x="188" y="156.5625"/><rect fill="none" height="103.2031" style="stroke:#000000;stroke-width:1.5;" width="261" x="188" y="314.0938"/><rect fill="none" height="130.5313" style="stroke:#000000;stroke-width:1.5;" width="327" x="188" y="431.2969"/><rect fill="none" height="104.5313" style="stroke:#000000;stroke-width:1.5;" width="740" x="67" y="575.8281"/><line style="stroke:#181818;stroke-width:0.5;stroke-dasharray:5.0,5.0;" x1="36" x2="36" y1="81.2969" y2="697.3594"/><line style="stroke:#181818;stroke-width:0.5;stroke-dasharray:5.0,5.0;" x1="122" x2="122" y1="81.2969" y2="697.3594"/><line style="stroke:#181818;stroke-width:0.5;stroke-dasharray:5.0,5.0;" x1="250" x2="250" y1="81.2969" y2="697.3594"/><line style="stroke:#181818;stroke-width:0.5;stroke-dasharray:5.0,5.0;" x1="394" x2="394" y1="81.2969" y2="697.3594"/><line style="stroke:#181818;stroke-width:0.5;stroke-dasharray:5.0,5.0;" x1="477" x2="477" y1="81.2969" y2="697.3594"/><line style="stroke:#181818;stroke-width:0.5;stroke-dasharray:5.0,5.0;" x1="585" x2="585" y1="81.2969" y2="697.3594"/><line style="stroke:#181818;stroke-width:0.5;stroke-dasharray:5.0,5.0;" x1="731" x2="731" y1="81.2969" y2="697.3594"/><text fill="#000000" font-family="sans-serif" font-size="14" lengthAdjust="spacing" textLength="56" x="5" y="77.9951">&#12518;&#12540;&#12470;&#12540;</text><ellipse cx="36" cy="13.5" fill="#E2E2F0" rx="8" ry="8" style="stroke:#181818;stroke-width:0.5;"/><path d="M36,21.5 L36,48.5 M23,29.5 L49,29.5 M36,48.5 L23,63.5 M36,48.5 L49,63.5 " fill="none" style="stroke:#181818;stroke-width:0.5;"/><text fill="#000000" font-family="sans-serif" font-size="14" lengthAdjust="spacing" textLength="56" x="5" y="709.3545">&#12518;&#12540;&#12470;&#12540;</text><ellipse cx="36" cy="721.1563" fill="#E2E2F0" rx="8" ry="8" style="stroke:#181818;stroke-width:0.5;"/><path d="M36,729.1563 L36,756.1563 M23,737.1563 L49,737.1563 M36,756.1563 L23,771.1563 M36,756.1563 L49,771.1563 " fill="none" style="stroke:#181818;stroke-width:0.5;"/><text fill="#000000" font-family="sans-serif" font-size="14" lengthAdjust="spacing" textLength="84" x="77" y="77.9951">&#30435;&#35222;&#12471;&#12473;&#12486;&#12512;</text><ellipse cx="122" cy="13.5" fill="#E2E2F0" rx="8" ry="8" style="stroke:#181818;stroke-width:0.5;"/><path d="M122,21.5 L122,48.5 M109,29.5 L135,29.5 M122,48.5 L109,63.5 M122,48.5 L135,63.5 " fill="none" style="stroke:#181818;stroke-width:0.5;"/><text fill="#000000" font-family="sans-serif" font-size="14" lengthAdjust="spacing" textLength="84" x="77" y="709.3545">&#30435;&#35222;&#12471;&#12473;&#12486;&#12512;</text><ellipse cx="122" cy="721.1563" fill="#E2E2F0" rx="8" ry="8" style="stroke:#181818;stroke-width:0.5;"/><path d="M122,729.1563 L122,756.1563 M109,737.1563 L135,737.1563 M122,756.1563 L109,771.1563 M122,756.1563 L135,771.1563 " fill="none" style="stroke:#181818;stroke-width:0.5;"/><text fill="#000000" font-family="sans-serif" font-size="14" lengthAdjust="spacing" textLength="98" x="198" y="77.9951">&#12469;&#12540;&#12499;&#12473;&#12487;&#12473;&#12463;</text><ellipse cx="250" cy="13.5" fill="#E2E2F0" rx="8" ry="8" style="stroke:#181818;stroke-width:0.5;"/><path d="M250,21.5 L250,48.5 M237,29.5 L263,29.5 M250,48.5 L237,63.5 M250,48.5 L263,63.5 " fill="none" style="stroke:#181818;stroke-width:0.5;"/><text fill="#000000" font-family="sans-serif" font-size="14" lengthAdjust="spacing" textLength="98" x="198" y="709.3545">&#12469;&#12540;&#12499;&#12473;&#12487;&#12473;&#12463;</text><ellipse cx="250" cy="721.1563" fill="#E2E2F0" rx="8" ry="8" style="stroke:#181818;stroke-width:0.5;"/><path d="M250,729.1563 L250,756.1563 M237,737.1563 L263,737.1563 M250,756.1563 L237,771.1563 M250,756.1563 L263,771.1563 " fill="none" style="stroke:#181818;stroke-width:0.5;"/><text fill="#000000" font-family="sans-serif" font-size="14" lengthAdjust="spacing" textLength="84" x="349" y="77.9951">&#19978;&#20301;&#12469;&#12509;&#12540;&#12488;</text><ellipse cx="394" cy="13.5" fill="#E2E2F0" rx="8" ry="8" style="stroke:#181818;stroke-width:0.5;"/><path d="M394,21.5 L394,48.5 M381,29.5 L407,29.5 M394,48.5 L381,63.5 M394,48.5 L407,63.5 " fill="none" style="stroke:#181818;stroke-width:0.5;"/><text fill="#000000" font-family="sans-serif" font-size="14" lengthAdjust="spacing" textLength="84" x="349" y="709.3545">&#19978;&#20301;&#12469;&#12509;&#12540;&#12488;</text><ellipse cx="394" cy="721.1563" fill="#E2E2F0" rx="8" ry="8" style="stroke:#181818;stroke-width:0.5;"/><path d="M394,729.1563 L394,756.1563 M381,737.1563 L407,737.1563 M394,756.1563 L381,771.1563 M394,756.1563 L407,771.1563 " fill="none" style="stroke:#181818;stroke-width:0.5;"/><rect fill="#E2E2F0" height="30.2969" rx="2.5" ry="2.5" style="stroke:#181818;stroke-width:0.5;" width="56" x="449" y="50"/><text fill="#000000" font-family="sans-serif" font-size="14" lengthAdjust="spacing" textLength="42" x="456" y="69.9951">&#31649;&#29702;&#32773;</text><rect fill="#E2E2F0" height="30.2969" rx="2.5" ry="2.5" style="stroke:#181818;stroke-width:0.5;" width="56" x="449" y="696.3594"/><text fill="#000000" font-family="sans-serif" font-size="14" lengthAdjust="spacing" textLength="42" x="456" y="716.3545">&#31649;&#29702;&#32773;</text><rect fill="#E2E2F0" height="30.2969" rx="2.5" ry="2.5" style="stroke:#181818;stroke-width:0.5;" width="140" x="515" y="50"/><text fill="#000000" font-family="sans-serif" font-size="14" lengthAdjust="spacing" textLength="126" x="522" y="69.9951">&#33258;&#21205;&#20462;&#24489;&#12473;&#12463;&#12522;&#12503;&#12488;</text><rect fill="#E2E2F0" height="30.2969" rx="2.5" ry="2.5" style="stroke:#181818;stroke-width:0.5;" width="140" x="515" y="696.3594"/><text fill="#000000" font-family="sans-serif" font-size="14" lengthAdjust="spacing" textLength="126" x="522" y="716.3545">&#33258;&#21205;&#20462;&#24489;&#12473;&#12463;&#12522;&#12503;&#12488;</text><rect fill="#E2E2F0" height="30.2969" rx="2.5" ry="2.5" style="stroke:#181818;stroke-width:0.5;" width="132" x="665" y="50"/><text fill="#000000" font-family="sans-serif" font-size="14" lengthAdjust="spacing" textLength="118" x="672" y="69.9951">CICD&#12497;&#12452;&#12503;&#12521;&#12452;&#12531;</text><rect fill="#E2E2F0" height="30.2969" rx="2.5" ry="2.5" style="stroke:#181818;stroke-width:0.5;" width="132" x="665" y="696.3594"/><text fill="#000000" font-family="sans-serif" font-size="14" lengthAdjust="spacing" textLength="118" x="672" y="716.3545">CICD&#12497;&#12452;&#12503;&#12521;&#12452;&#12531;</text><polygon fill="#181818" points="238,108.4297,248,112.4297,238,116.4297,242,112.4297" style="stroke:#181818;stroke-width:1.0;"/><line style="stroke:#181818;stroke-width:1.0;stroke-dasharray:2.0,2.0;" x1="36" x2="244" y1="112.4297" y2="112.4297"/><text fill="#000000" font-family="sans-serif" font-size="13" lengthAdjust="spacing" textLength="104" x="43" y="107.3638">&#12452;&#12531;&#12471;&#12487;&#12531;&#12488;&#22577;&#21578;</text><polygon fill="#181818" points="238,137.5625,248,141.5625,238,145.5625,242,141.5625" style="stroke:#181818;stroke-width:1.0;"/><line style="stroke:#181818;stroke-width:1.0;stroke-dasharray:2.0,2.0;" x1="122" x2="244" y1="141.5625" y2="141.5625"/><text fill="#000000" font-family="sans-serif" font-size="13" lengthAdjust="spacing" textLength="104" x="129" y="136.4966">&#12452;&#12531;&#12471;&#12487;&#12531;&#12488;&#36890;&#30693;</text><path d="M188,156.5625 L285,156.5625 L285,163.6953 L275,173.6953 L188,173.6953 L188,156.5625 " fill="#EEEEEE" style="stroke:#000000;stroke-width:1.5;"/><rect fill="none" height="143.5313" style="stroke:#000000;stroke-width:1.5;" width="211" x="188" y="156.5625"/><text fill="#000000" font-family="sans-serif" font-size="13" font-weight="bold" lengthAdjust="spacing" textLength="52" x="203" y="169.6294">&#21021;&#26399;&#23550;&#24540;</text><line style="stroke:#181818;stroke-width:1.0;" x1="250" x2="292" y1="194.8281" y2="194.8281"/><line style="stroke:#181818;stroke-width:1.0;" x1="292" x2="292" y1="194.8281" y2="207.8281"/><line style="stroke:#181818;stroke-width:1.0;" x1="251" x2="292" y1="207.8281" y2="207.8281"/><polygon fill="#181818" points="261,203.8281,251,207.8281,261,211.8281,257,207.8281" style="stroke:#181818;stroke-width:1.0;"/><text fill="#000000" font-family="sans-serif" font-size="13" lengthAdjust="spacing" textLength="130" x="257" y="189.7622">&#12452;&#12531;&#12471;&#12487;&#12531;&#12488;&#12525;&#12464;&#35352;&#37682;</text><line style="stroke:#181818;stroke-width:1.0;" x1="250" x2="292" y1="236.9609" y2="236.9609"/><line style="stroke:#181818;stroke-width:1.0;" x1="292" x2="292" y1="236.9609" y2="249.9609"/><line style="stroke:#181818;stroke-width:1.0;" x1="251" x2="292" y1="249.9609" y2="249.9609"/><polygon fill="#181818" points="261,245.9609,251,249.9609,261,253.9609,257,249.9609" style="stroke:#181818;stroke-width:1.0;"/><text fill="#000000" font-family="sans-serif" font-size="13" lengthAdjust="spacing" textLength="78" x="257" y="231.895">&#20778;&#20808;&#38918;&#20301;&#20184;&#12369;</text><line style="stroke:#181818;stroke-width:1.0;" x1="250" x2="292" y1="279.0938" y2="279.0938"/><line style="stroke:#181818;stroke-width:1.0;" x1="292" x2="292" y1="279.0938" y2="292.0938"/><line style="stroke:#181818;stroke-width:1.0;" x1="251" x2="292" y1="292.0938" y2="292.0938"/><polygon fill="#181818" points="261,288.0938,251,292.0938,261,296.0938,257,292.0938" style="stroke:#181818;stroke-width:1.0;"/><text fill="#000000" font-family="sans-serif" font-size="13" lengthAdjust="spacing" textLength="52" x="257" y="274.0278">&#21021;&#26399;&#23550;&#24540;</text><path d="M188,314.0938 L252,314.0938 L252,321.2266 L242,331.2266 L188,331.2266 L188,314.0938 " fill="#EEEEEE" style="stroke:#000000;stroke-width:1.5;"/><rect fill="none" height="103.2031" style="stroke:#000000;stroke-width:1.5;" width="261" x="188" y="314.0938"/><text fill="#000000" font-family="sans-serif" font-size="13" font-weight="bold" lengthAdjust="spacing" textLength="19" x="203" y="327.1606">alt</text><text fill="#000000" font-family="sans-serif" font-size="11" font-weight="bold" lengthAdjust="spacing" textLength="131" x="267" y="326.3042">[&#12456;&#12473;&#12459;&#12524;&#12540;&#12471;&#12519;&#12531;&#12364;&#24517;&#35201;]</text><polygon fill="#181818" points="382,348.3594,392,352.3594,382,356.3594,386,352.3594" style="stroke:#181818;stroke-width:1.0;"/><line style="stroke:#181818;stroke-width:1.0;" x1="250" x2="388" y1="352.3594" y2="352.3594"/><text fill="#000000" font-family="sans-serif" font-size="13" lengthAdjust="spacing" textLength="104" x="257" y="347.2935">&#12456;&#12473;&#12459;&#12524;&#12540;&#12471;&#12519;&#12531;</text><line style="stroke:#000000;stroke-width:1.0;stroke-dasharray:2.0,2.0;" x1="188" x2="449" y1="361.3594" y2="361.3594"/><text fill="#000000" font-family="sans-serif" font-size="11" font-weight="bold" lengthAdjust="spacing" textLength="120" x="193" y="371.5698">[&#12456;&#12473;&#12459;&#12524;&#12540;&#12471;&#12519;&#12531;&#19981;&#35201;]</text><line style="stroke:#181818;stroke-width:1.0;" x1="250" x2="292" y1="396.2969" y2="396.2969"/><line style="stroke:#181818;stroke-width:1.0;" x1="292" x2="292" y1="396.2969" y2="409.2969"/><line style="stroke:#181818;stroke-width:1.0;" x1="251" x2="292" y1="409.2969" y2="409.2969"/><polygon fill="#181818" points="261,405.2969,251,409.2969,261,413.2969,257,409.2969" style="stroke:#181818;stroke-width:1.0;"/><text fill="#000000" font-family="sans-serif" font-size="13" lengthAdjust="spacing" textLength="26" x="257" y="391.231">&#35299;&#27770;</text><path d="M188,431.2969 L286,431.2969 L286,438.4297 L276,448.4297 L188,448.4297 L188,431.2969 " fill="#EEEEEE" style="stroke:#000000;stroke-width:1.5;"/><rect fill="none" height="130.5313" style="stroke:#000000;stroke-width:1.5;" width="327" x="188" y="431.2969"/><text fill="#000000" font-family="sans-serif" font-size="13" font-weight="bold" lengthAdjust="spacing" textLength="53" x="203" y="444.3638">SLA&#31649;&#29702;</text><line style="stroke:#181818;stroke-width:1.0;" x1="250" x2="292" y1="469.5625" y2="469.5625"/><line style="stroke:#181818;stroke-width:1.0;" x1="292" x2="292" y1="469.5625" y2="482.5625"/><line style="stroke:#181818;stroke-width:1.0;" x1="251" x2="292" y1="482.5625" y2="482.5625"/><polygon fill="#181818" points="261,478.5625,251,482.5625,261,486.5625,257,482.5625" style="stroke:#181818;stroke-width:1.0;"/><text fill="#000000" font-family="sans-serif" font-size="13" lengthAdjust="spacing" textLength="51" x="257" y="464.4966">SLA&#36861;&#36321;</text><line style="stroke:#181818;stroke-width:1.0;" x1="250" x2="292" y1="511.6953" y2="511.6953"/><line style="stroke:#181818;stroke-width:1.0;" x1="292" x2="292" y1="511.6953" y2="524.6953"/><line style="stroke:#181818;stroke-width:1.0;" x1="251" x2="292" y1="524.6953" y2="524.6953"/><polygon fill="#181818" points="261,520.6953,251,524.6953,261,528.6953,257,524.6953" style="stroke:#181818;stroke-width:1.0;"/><text fill="#000000" font-family="sans-serif" font-size="13" lengthAdjust="spacing" textLength="103" x="257" y="506.6294">SLA&#12524;&#12509;&#12540;&#12488;&#29983;&#25104;</text><polygon fill="#181818" points="465,549.8281,475,553.8281,465,557.8281,469,553.8281" style="stroke:#181818;stroke-width:1.0;"/><line style="stroke:#181818;stroke-width:1.0;" x1="250" x2="471" y1="553.8281" y2="553.8281"/><text fill="#000000" font-family="sans-serif" font-size="13" lengthAdjust="spacing" textLength="77" x="257" y="548.7622">SLA&#36949;&#21453;&#36890;&#30693;</text><path d="M67,575.8281 L229,575.8281 L229,582.9609 L219,592.9609 L67,592.9609 L67,575.8281 " fill="#EEEEEE" style="stroke:#000000;stroke-width:1.5;"/><rect fill="none" height="104.5313" style="stroke:#000000;stroke-width:1.5;" width="740" x="67" y="575.8281"/><text fill="#000000" font-family="sans-serif" font-size="13" font-weight="bold" lengthAdjust="spacing" textLength="117" x="82" y="588.895">&#20182;&#12471;&#12473;&#12486;&#12512;&#12392;&#12398;&#32113;&#21512;</text><polygon fill="#181818" points="238,610.0938,248,614.0938,238,618.0938,242,614.0938" style="stroke:#181818;stroke-width:1.0;"/><line style="stroke:#181818;stroke-width:1.0;" x1="122" x2="244" y1="614.0938" y2="614.0938"/><text fill="#000000" font-family="sans-serif" font-size="13" lengthAdjust="spacing" textLength="104" x="129" y="609.0278">&#12452;&#12531;&#12471;&#12487;&#12531;&#12488;&#36890;&#30693;</text><polygon fill="#181818" points="573,639.2266,583,643.2266,573,647.2266,577,643.2266" style="stroke:#181818;stroke-width:1.0;"/><line style="stroke:#181818;stroke-width:1.0;" x1="250" x2="579" y1="643.2266" y2="643.2266"/><text fill="#000000" font-family="sans-serif" font-size="13" lengthAdjust="spacing" textLength="52" x="257" y="638.1606">&#12488;&#12522;&#12460;&#12540;</text><polygon fill="#181818" points="719,668.3594,729,672.3594,719,676.3594,723,672.3594" style="stroke:#181818;stroke-width:1.0;"/><line style="stroke:#181818;stroke-width:1.0;" x1="250" x2="725" y1="672.3594" y2="672.3594"/><text fill="#000000" font-family="sans-serif" font-size="13" lengthAdjust="spacing" textLength="52" x="257" y="667.2935">&#22793;&#26356;&#31649;&#29702;</text><!--SRC=[dPDDJi905CVtSufUW0kuC36uCN7d2OWIDqGCufxE25I4256K20G8o4TL41L14NgOrscdjt0wxG83rD3Df7aVl_d_vxs63kFHc0Ia3UG7y2S_KKY4p7AJjUy0Zm5_0Ka1gRi9m2Exbjo8HDe-yS3DwPECFik9YgeeKX1QP4k1mFPgWBJ5uoqWx_QDFCW_Y4BhGrh8e6Kf6tAin8DPUqJeE1OzFvMeKZKgDJgOKws2f3MOZVX0NW2_icx9ohxv8T8BbIOLgvxYZwTFIo0NV54MVOLFZX0AHUAykYigde0yYpbmsHrRjfobMfArPQ-hbkSf_Ayced3aBBmsgqzo_rospXVhD8tXj-F8cU31_exPRvZvb1ySRsRQZ8qRFfk5B_SrpDkQeUIzG8vEbaWwpPPSfDSvTnyN7EdJF_iDSXValZaQqhp2wQj-01_xxo6JfLLwLTIrFfttd2WG5SYzEt5xnLN0za2zAC6zu2wGWX30MtkE4dirMvT6-SET6RVz2m00]--></g></svg>