<?xml version="1.0" encoding="UTF-8" standalone="no"?><svg xmlns="http://www.w3.org/2000/svg" xmlns:xlink="http://www.w3.org/1999/xlink" contentScriptType="application/ecmascript" contentStyleType="text/css" height="724px" preserveAspectRatio="none" style="width:691px;height:724px;" version="1.1" viewBox="0 0 691 724" width="691px" zoomAndPan="magnify"><defs><filter height="300%" id="f1x8guywj0ra60" width="300%" x="-1" y="-1"><feGaussianBlur result="blurOut" stdDeviation="2.0"/><feColorMatrix in="blurOut" result="blurOut2" type="matrix" values="0 0 0 0 0 0 0 0 0 0 0 0 0 0 0 0 0 0 .4 0"/><feOffset dx="4.0" dy="4.0" in="blurOut2" result="blurOut3"/><feBlend in="SourceGraphic" in2="blurOut3" mode="normal"/></filter></defs><g><text fill="#000000" font-family="sans-serif" font-size="18" lengthAdjust="spacingAndGlyphs" textLength="198" x="247.5" y="26.708">インシデント対応フロー</text><rect fill="#FFFFFF" filter="url(#f1x8guywj0ra60)" height="75.3984" style="stroke: #000000; stroke-width: 2.0;" width="307" x="373" y="339.0469"/><rect fill="#FFFFFF" filter="url(#f1x8guywj0ra60)" height="75.3984" style="stroke: #000000; stroke-width: 2.0;" width="307" x="373" y="486.7109"/><line style="stroke: #A80036; stroke-width: 1.0; stroke-dasharray: 5.0,5.0;" x1="39" x2="39" y1="121.25" y2="637.375"/><line style="stroke: #A80036; stroke-width: 1.0; stroke-dasharray: 5.0,5.0;" x1="167" x2="167" y1="121.25" y2="637.375"/><line style="stroke: #A80036; stroke-width: 1.0; stroke-dasharray: 5.0,5.0;" x1="273" x2="273" y1="121.25" y2="637.375"/><line style="stroke: #A80036; stroke-width: 1.0; stroke-dasharray: 5.0,5.0;" x1="427" x2="427" y1="121.25" y2="637.375"/><line style="stroke: #A80036; stroke-width: 1.0; stroke-dasharray: 5.0,5.0;" x1="584" x2="584" y1="121.25" y2="637.375"/><text fill="#000000" font-family="sans-serif" font-size="14" lengthAdjust="spacingAndGlyphs" textLength="56" x="8" y="117.9482">ユーザー</text><ellipse cx="39" cy="47.9531" fill="#FEFECE" filter="url(#f1x8guywj0ra60)" rx="8" ry="8" style="stroke: #A80036; stroke-width: 2.0;"/><path d="M39,55.9531 L39,82.9531 M26,63.9531 L52,63.9531 M39,82.9531 L26,97.9531 M39,82.9531 L52,97.9531 " fill="none" filter="url(#f1x8guywj0ra60)" style="stroke: #A80036; stroke-width: 2.0;"/><text fill="#000000" font-family="sans-serif" font-size="14" lengthAdjust="spacingAndGlyphs" textLength="56" x="8" y="649.3701">ユーザー</text><ellipse cx="39" cy="662.6719" fill="#FEFECE" filter="url(#f1x8guywj0ra60)" rx="8" ry="8" style="stroke: #A80036; stroke-width: 2.0;"/><path d="M39,670.6719 L39,697.6719 M26,678.6719 L52,678.6719 M39,697.6719 L26,712.6719 M39,697.6719 L52,712.6719 " fill="none" filter="url(#f1x8guywj0ra60)" style="stroke: #A80036; stroke-width: 2.0;"/><text fill="#000000" font-family="sans-serif" font-size="14" lengthAdjust="spacingAndGlyphs" textLength="98" x="115" y="117.9482">サービスデスク</text><ellipse cx="167" cy="47.9531" fill="#FEFECE" filter="url(#f1x8guywj0ra60)" rx="8" ry="8" style="stroke: #A80036; stroke-width: 2.0;"/><path d="M167,55.9531 L167,82.9531 M154,63.9531 L180,63.9531 M167,82.9531 L154,97.9531 M167,82.9531 L180,97.9531 " fill="none" filter="url(#f1x8guywj0ra60)" style="stroke: #A80036; stroke-width: 2.0;"/><text fill="#000000" font-family="sans-serif" font-size="14" lengthAdjust="spacingAndGlyphs" textLength="98" x="115" y="649.3701">サービスデスク</text><ellipse cx="167" cy="662.6719" fill="#FEFECE" filter="url(#f1x8guywj0ra60)" rx="8" ry="8" style="stroke: #A80036; stroke-width: 2.0;"/><path d="M167,670.6719 L167,697.6719 M154,678.6719 L180,678.6719 M167,697.6719 L154,712.6719 M167,697.6719 L180,712.6719 " fill="none" filter="url(#f1x8guywj0ra60)" style="stroke: #A80036; stroke-width: 2.0;"/><rect fill="#FEFECE" filter="url(#f1x8guywj0ra60)" height="30.2969" style="stroke: #A80036; stroke-width: 1.5;" width="84" x="229" y="85.9531"/><text fill="#000000" font-family="sans-serif" font-size="14" lengthAdjust="spacingAndGlyphs" textLength="70" x="236" y="105.9482">監視ツール</text><rect fill="#FEFECE" filter="url(#f1x8guywj0ra60)" height="30.2969" style="stroke: #A80036; stroke-width: 1.5;" width="84" x="229" y="636.375"/><text fill="#000000" font-family="sans-serif" font-size="14" lengthAdjust="spacingAndGlyphs" textLength="70" x="236" y="656.3701">監視ツール</text><rect fill="#FEFECE" filter="url(#f1x8guywj0ra60)" height="30.2969" style="stroke: #A80036; stroke-width: 1.5;" width="84" x="383" y="85.9531"/><text fill="#000000" font-family="sans-serif" font-size="14" lengthAdjust="spacingAndGlyphs" textLength="70" x="390" y="105.9482">担当チーム</text><rect fill="#FEFECE" filter="url(#f1x8guywj0ra60)" height="30.2969" style="stroke: #A80036; stroke-width: 1.5;" width="84" x="383" y="636.375"/><text fill="#000000" font-family="sans-serif" font-size="14" lengthAdjust="spacingAndGlyphs" textLength="70" x="390" y="656.3701">担当チーム</text><rect fill="#FEFECE" filter="url(#f1x8guywj0ra60)" height="30.2969" style="stroke: #A80036; stroke-width: 1.5;" width="168" x="498" y="85.9531"/><text fill="#000000" font-family="sans-serif" font-size="14" lengthAdjust="spacingAndGlyphs" textLength="154" x="505" y="105.9482">エスカレーションチーム</text><rect fill="#FEFECE" filter="url(#f1x8guywj0ra60)" height="30.2969" style="stroke: #A80036; stroke-width: 1.5;" width="168" x="498" y="636.375"/><text fill="#000000" font-family="sans-serif" font-size="14" lengthAdjust="spacingAndGlyphs" textLength="154" x="505" y="656.3701">エスカレーションチーム</text><polygon fill="#A80036" points="155,148.3828,165,152.3828,155,156.3828,159,152.3828" style="stroke: #A80036; stroke-width: 1.0;"/><line style="stroke: #A80036; stroke-width: 1.0;" x1="39" x2="161" y1="152.3828" y2="152.3828"/><text fill="#000000" font-family="sans-serif" font-size="13" lengthAdjust="spacingAndGlyphs" textLength="104" x="46" y="147.3169">インシデント申告</text><polygon fill="#A80036" points="415,177.5156,425,181.5156,415,185.5156,419,181.5156" style="stroke: #A80036; stroke-width: 1.0;"/><line style="stroke: #A80036; stroke-width: 1.0;" x1="273" x2="421" y1="181.5156" y2="181.5156"/><text fill="#000000" font-family="sans-serif" font-size="13" lengthAdjust="spacingAndGlyphs" textLength="130" x="280" y="176.4497">自動インシデント作成</text><polygon fill="#A80036" points="415,206.6484,425,210.6484,415,214.6484,419,210.6484" style="stroke: #A80036; stroke-width: 1.0;"/><line style="stroke: #A80036; stroke-width: 1.0;" x1="167" x2="421" y1="210.6484" y2="210.6484"/><text fill="#000000" font-family="sans-serif" font-size="13" lengthAdjust="spacingAndGlyphs" textLength="104" x="174" y="205.5825">インシデント登録</text><line style="stroke: #A80036; stroke-width: 1.0;" x1="427" x2="469" y1="239.7813" y2="239.7813"/><line style="stroke: #A80036; stroke-width: 1.0;" x1="469" x2="469" y1="239.7813" y2="252.7813"/><line style="stroke: #A80036; stroke-width: 1.0;" x1="428" x2="469" y1="252.7813" y2="252.7813"/><polygon fill="#A80036" points="438,248.7813,428,252.7813,438,256.7813,434,252.7813" style="stroke: #A80036; stroke-width: 1.0;"/><text fill="#000000" font-family="sans-serif" font-size="13" lengthAdjust="spacingAndGlyphs" textLength="143" x="434" y="234.7153">影響範囲と優先度を評価</text><line style="stroke: #A80036; stroke-width: 1.0;" x1="427" x2="469" y1="281.9141" y2="281.9141"/><line style="stroke: #A80036; stroke-width: 1.0;" x1="469" x2="469" y1="281.9141" y2="294.9141"/><line style="stroke: #A80036; stroke-width: 1.0;" x1="428" x2="469" y1="294.9141" y2="294.9141"/><polygon fill="#A80036" points="438,290.9141,428,294.9141,438,298.9141,434,294.9141" style="stroke: #A80036; stroke-width: 1.0;"/><text fill="#000000" font-family="sans-serif" font-size="13" lengthAdjust="spacingAndGlyphs" textLength="78" x="434" y="276.8481">初期対応実施</text><polygon fill="#A80036" points="50,320.0469,40,324.0469,50,328.0469,46,324.0469" style="stroke: #A80036; stroke-width: 1.0;"/><line style="stroke: #A80036; stroke-width: 1.0;" x1="44" x2="426" y1="324.0469" y2="324.0469"/><text fill="#000000" font-family="sans-serif" font-size="13" lengthAdjust="spacingAndGlyphs" textLength="52" x="56" y="318.981">状況報告</text><path d="M373,339.0469 L437,339.0469 L437,346.0469 L427,356.0469 L373,356.0469 L373,339.0469 " fill="#EEEEEE" style="stroke: #000000; stroke-width: 1.0;"/><rect fill="none" height="75.3984" style="stroke: #000000; stroke-width: 2.0;" width="307" x="373" y="339.0469"/><text fill="#000000" font-family="sans-serif" font-size="13" font-weight="bold" lengthAdjust="spacingAndGlyphs" textLength="19" x="388" y="352.1138">alt</text><text fill="#000000" font-family="sans-serif" font-size="11" font-weight="bold" lengthAdjust="spacingAndGlyphs" textLength="87" x="452" y="351.2573">[高優先度の場合]</text><polygon fill="#A80036" points="572,373.3125,582,377.3125,572,381.3125,576,377.3125" style="stroke: #A80036; stroke-width: 1.0;"/><line style="stroke: #A80036; stroke-width: 1.0;" x1="427" x2="578" y1="377.3125" y2="377.3125"/><text fill="#000000" font-family="sans-serif" font-size="13" lengthAdjust="spacingAndGlyphs" textLength="104" x="434" y="372.2466">エスカレーション</text><polygon fill="#A80036" points="438,402.4453,428,406.4453,438,410.4453,434,406.4453" style="stroke: #A80036; stroke-width: 1.0;"/><line style="stroke: #A80036; stroke-width: 1.0;" x1="432" x2="583" y1="406.4453" y2="406.4453"/><text fill="#000000" font-family="sans-serif" font-size="13" lengthAdjust="spacingAndGlyphs" textLength="52" x="444" y="401.3794">専門対応</text><polygon fill="#A80036" points="284,438.5781,274,442.5781,284,446.5781,280,442.5781" style="stroke: #A80036; stroke-width: 1.0;"/><line style="stroke: #A80036; stroke-width: 1.0;" x1="278" x2="426" y1="442.5781" y2="442.5781"/><text fill="#000000" font-family="sans-serif" font-size="13" lengthAdjust="spacingAndGlyphs" textLength="104" x="290" y="437.5122">状況モニタリング</text><polygon fill="#A80036" points="50,467.7109,40,471.7109,50,475.7109,46,471.7109" style="stroke: #A80036; stroke-width: 1.0;"/><line style="stroke: #A80036; stroke-width: 1.0;" x1="44" x2="426" y1="471.7109" y2="471.7109"/><text fill="#000000" font-family="sans-serif" font-size="13" lengthAdjust="spacingAndGlyphs" textLength="52" x="56" y="466.645">定期報告</text><path d="M373,486.7109 L437,486.7109 L437,493.7109 L427,503.7109 L373,503.7109 L373,486.7109 " fill="#EEEEEE" style="stroke: #000000; stroke-width: 1.0;"/><rect fill="none" height="75.3984" style="stroke: #000000; stroke-width: 2.0;" width="307" x="373" y="486.7109"/><text fill="#000000" font-family="sans-serif" font-size="13" font-weight="bold" lengthAdjust="spacingAndGlyphs" textLength="19" x="388" y="499.7778">alt</text><text fill="#000000" font-family="sans-serif" font-size="11" font-weight="bold" lengthAdjust="spacingAndGlyphs" textLength="88" x="452" y="498.9214">[SLA違反発生時]</text><polygon fill="#A80036" points="572,520.9766,582,524.9766,572,528.9766,576,524.9766" style="stroke: #A80036; stroke-width: 1.0;"/><line style="stroke: #A80036; stroke-width: 1.0;" x1="427" x2="578" y1="524.9766" y2="524.9766"/><text fill="#000000" font-family="sans-serif" font-size="13" lengthAdjust="spacingAndGlyphs" textLength="104" x="434" y="519.9106">エスカレーション</text><polygon fill="#A80036" points="438,550.1094,428,554.1094,438,558.1094,434,554.1094" style="stroke: #A80036; stroke-width: 1.0;"/><line style="stroke: #A80036; stroke-width: 1.0;" x1="432" x2="583" y1="554.1094" y2="554.1094"/><text fill="#000000" font-family="sans-serif" font-size="13" lengthAdjust="spacingAndGlyphs" textLength="52" x="444" y="549.0435">対策実施</text><polygon fill="#A80036" points="50,586.2422,40,590.2422,50,594.2422,46,590.2422" style="stroke: #A80036; stroke-width: 1.0;"/><line style="stroke: #A80036; stroke-width: 1.0;" x1="44" x2="426" y1="590.2422" y2="590.2422"/><text fill="#000000" font-family="sans-serif" font-size="13" lengthAdjust="spacingAndGlyphs" textLength="130" x="56" y="585.1763">インシデント解決報告</text><polygon fill="#A80036" points="415,615.375,425,619.375,415,623.375,419,619.375" style="stroke: #A80036; stroke-width: 1.0;"/><line style="stroke: #A80036; stroke-width: 1.0;" x1="39" x2="421" y1="619.375" y2="619.375"/><text fill="#000000" font-family="sans-serif" font-size="13" lengthAdjust="spacingAndGlyphs" textLength="156" x="46" y="614.3091">確認およびフィードバック</text><!--MD5=[79c51c04167e4affeb3fa65ca31c33e8]
@startuml
title インシデント対応フロー

actor ユーザー as User
actor サービスデスク as ServiceDesk
participant 監視ツール as Monitoring
participant 担当チーム as Team
participant エスカレーションチーム as EscalationTeam

User -> ServiceDesk: インシデント申告
Monitoring -> Team: 自動インシデント作成
ServiceDesk -> Team: インシデント登録
Team -> Team: 影響範囲と優先度を評価
Team -> Team: 初期対応実施
Team -> User: 状況報告

alt 高優先度の場合
    Team -> EscalationTeam: エスカレーション
    EscalationTeam -> Team: 専門対応
end

Team -> Monitoring: 状況モニタリング
Team -> User: 定期報告

alt SLA違反発生時
    Team -> EscalationTeam: エスカレーション
    EscalationTeam -> Team: 対策実施
end

Team -> User: インシデント解決報告
User -> Team: 確認およびフィードバック

@enduml

PlantUML version 1.2020.02(Sun Mar 01 19:22:07 JST 2020)
(GPL source distribution)
Java Runtime: OpenJDK Runtime Environment
JVM: OpenJDK 64-Bit Server VM
Java Version: 11.0.24+8-post-Ubuntu-1ubuntu322.04
Operating System: Linux
Default Encoding: UTF-8
Language: en
Country: null
--></g></svg>