<?xml version="1.0" encoding="us-ascii" standalone="no"?><svg xmlns="http://www.w3.org/2000/svg" xmlns:xlink="http://www.w3.org/1999/xlink" contentStyleType="text/css" height="715px" preserveAspectRatio="none" style="width:679px;height:715px;background:#FFFFFF;" version="1.1" viewBox="0 0 679 715" width="679px" zoomAndPan="magnify"><defs/><g><text fill="#000000" font-family="sans-serif" font-size="14" font-weight="bold" lengthAdjust="spacing" textLength="154" x="264" y="27.9951">&#12452;&#12531;&#12471;&#12487;&#12531;&#12488;&#23550;&#24540;&#12501;&#12525;&#12540;</text><rect fill="none" height="75.3984" style="stroke:#000000;stroke-width:1.5;" width="303" x="370" y="336.3906"/><rect fill="none" height="75.3984" style="stroke:#000000;stroke-width:1.5;" width="303" x="370" y="484.0547"/><line style="stroke:#181818;stroke-width:0.5;stroke-dasharray:5.0,5.0;" x1="36" x2="36" y1="118.5938" y2="634.7188"/><line style="stroke:#181818;stroke-width:0.5;stroke-dasharray:5.0,5.0;" x1="164" x2="164" y1="118.5938" y2="634.7188"/><line style="stroke:#181818;stroke-width:0.5;stroke-dasharray:5.0,5.0;" x1="268" x2="268" y1="118.5938" y2="634.7188"/><line style="stroke:#181818;stroke-width:0.5;stroke-dasharray:5.0,5.0;" x1="422" x2="422" y1="118.5938" y2="634.7188"/><line style="stroke:#181818;stroke-width:0.5;stroke-dasharray:5.0,5.0;" x1="579" x2="579" y1="118.5938" y2="634.7188"/><text fill="#000000" font-family="sans-serif" font-size="14" lengthAdjust="spacing" textLength="56" x="5" y="115.292">&#12518;&#12540;&#12470;&#12540;</text><ellipse cx="36" cy="50.7969" fill="#E2E2F0" rx="8" ry="8" style="stroke:#181818;stroke-width:0.5;"/><path d="M36,58.7969 L36,85.7969 M23,66.7969 L49,66.7969 M36,85.7969 L23,100.7969 M36,85.7969 L49,100.7969 " fill="none" style="stroke:#181818;stroke-width:0.5;"/><text fill="#000000" font-family="sans-serif" font-size="14" lengthAdjust="spacing" textLength="56" x="5" y="646.7139">&#12518;&#12540;&#12470;&#12540;</text><ellipse cx="36" cy="658.5156" fill="#E2E2F0" rx="8" ry="8" style="stroke:#181818;stroke-width:0.5;"/><path d="M36,666.5156 L36,693.5156 M23,674.5156 L49,674.5156 M36,693.5156 L23,708.5156 M36,693.5156 L49,708.5156 " fill="none" style="stroke:#181818;stroke-width:0.5;"/><text fill="#000000" font-family="sans-serif" font-size="14" lengthAdjust="spacing" textLength="98" x="112" y="115.292">&#12469;&#12540;&#12499;&#12473;&#12487;&#12473;&#12463;</text><ellipse cx="164" cy="50.7969" fill="#E2E2F0" rx="8" ry="8" style="stroke:#181818;stroke-width:0.5;"/><path d="M164,58.7969 L164,85.7969 M151,66.7969 L177,66.7969 M164,85.7969 L151,100.7969 M164,85.7969 L177,100.7969 " fill="none" style="stroke:#181818;stroke-width:0.5;"/><text fill="#000000" font-family="sans-serif" font-size="14" lengthAdjust="spacing" textLength="98" x="112" y="646.7139">&#12469;&#12540;&#12499;&#12473;&#12487;&#12473;&#12463;</text><ellipse cx="164" cy="658.5156" fill="#E2E2F0" rx="8" ry="8" style="stroke:#181818;stroke-width:0.5;"/><path d="M164,666.5156 L164,693.5156 M151,674.5156 L177,674.5156 M164,693.5156 L151,708.5156 M164,693.5156 L177,708.5156 " fill="none" style="stroke:#181818;stroke-width:0.5;"/><rect fill="#E2E2F0" height="30.2969" rx="2.5" ry="2.5" style="stroke:#181818;stroke-width:0.5;" width="84" x="226" y="87.2969"/><text fill="#000000" font-family="sans-serif" font-size="14" lengthAdjust="spacing" textLength="70" x="233" y="107.292">&#30435;&#35222;&#12484;&#12540;&#12523;</text><rect fill="#E2E2F0" height="30.2969" rx="2.5" ry="2.5" style="stroke:#181818;stroke-width:0.5;" width="84" x="226" y="633.7188"/><text fill="#000000" font-family="sans-serif" font-size="14" lengthAdjust="spacing" textLength="70" x="233" y="653.7139">&#30435;&#35222;&#12484;&#12540;&#12523;</text><rect fill="#E2E2F0" height="30.2969" rx="2.5" ry="2.5" style="stroke:#181818;stroke-width:0.5;" width="84" x="380" y="87.2969"/><text fill="#000000" font-family="sans-serif" font-size="14" lengthAdjust="spacing" textLength="70" x="387" y="107.292">&#25285;&#24403;&#12481;&#12540;&#12512;</text><rect fill="#E2E2F0" height="30.2969" rx="2.5" ry="2.5" style="stroke:#181818;stroke-width:0.5;" width="84" x="380" y="633.7188"/><text fill="#000000" font-family="sans-serif" font-size="14" lengthAdjust="spacing" textLength="70" x="387" y="653.7139">&#25285;&#24403;&#12481;&#12540;&#12512;</text><rect fill="#E2E2F0" height="30.2969" rx="2.5" ry="2.5" style="stroke:#181818;stroke-width:0.5;" width="168" x="495" y="87.2969"/><text fill="#000000" font-family="sans-serif" font-size="14" lengthAdjust="spacing" textLength="154" x="502" y="107.292">&#12456;&#12473;&#12459;&#12524;&#12540;&#12471;&#12519;&#12531;&#12481;&#12540;&#12512;</text><rect fill="#E2E2F0" height="30.2969" rx="2.5" ry="2.5" style="stroke:#181818;stroke-width:0.5;" width="168" x="495" y="633.7188"/><text fill="#000000" font-family="sans-serif" font-size="14" lengthAdjust="spacing" textLength="154" x="502" y="653.7139">&#12456;&#12473;&#12459;&#12524;&#12540;&#12471;&#12519;&#12531;&#12481;&#12540;&#12512;</text><polygon fill="#181818" points="152,145.7266,162,149.7266,152,153.7266,156,149.7266" style="stroke:#181818;stroke-width:1.0;"/><line style="stroke:#181818;stroke-width:1.0;" x1="36" x2="158" y1="149.7266" y2="149.7266"/><text fill="#000000" font-family="sans-serif" font-size="13" lengthAdjust="spacing" textLength="104" x="43" y="144.6606">&#12452;&#12531;&#12471;&#12487;&#12531;&#12488;&#30003;&#21578;</text><polygon fill="#181818" points="410,174.8594,420,178.8594,410,182.8594,414,178.8594" style="stroke:#181818;stroke-width:1.0;"/><line style="stroke:#181818;stroke-width:1.0;" x1="268" x2="416" y1="178.8594" y2="178.8594"/><text fill="#000000" font-family="sans-serif" font-size="13" lengthAdjust="spacing" textLength="130" x="275" y="173.7935">&#33258;&#21205;&#12452;&#12531;&#12471;&#12487;&#12531;&#12488;&#20316;&#25104;</text><polygon fill="#181818" points="410,203.9922,420,207.9922,410,211.9922,414,207.9922" style="stroke:#181818;stroke-width:1.0;"/><line style="stroke:#181818;stroke-width:1.0;" x1="164" x2="416" y1="207.9922" y2="207.9922"/><text fill="#000000" font-family="sans-serif" font-size="13" lengthAdjust="spacing" textLength="104" x="171" y="202.9263">&#12452;&#12531;&#12471;&#12487;&#12531;&#12488;&#30331;&#37682;</text><line style="stroke:#181818;stroke-width:1.0;" x1="422" x2="464" y1="237.125" y2="237.125"/><line style="stroke:#181818;stroke-width:1.0;" x1="464" x2="464" y1="237.125" y2="250.125"/><line style="stroke:#181818;stroke-width:1.0;" x1="423" x2="464" y1="250.125" y2="250.125"/><polygon fill="#181818" points="433,246.125,423,250.125,433,254.125,429,250.125" style="stroke:#181818;stroke-width:1.0;"/><text fill="#000000" font-family="sans-serif" font-size="13" lengthAdjust="spacing" textLength="143" x="429" y="232.0591">&#24433;&#38911;&#31684;&#22258;&#12392;&#20778;&#20808;&#24230;&#12434;&#35413;&#20385;</text><line style="stroke:#181818;stroke-width:1.0;" x1="422" x2="464" y1="279.2578" y2="279.2578"/><line style="stroke:#181818;stroke-width:1.0;" x1="464" x2="464" y1="279.2578" y2="292.2578"/><line style="stroke:#181818;stroke-width:1.0;" x1="423" x2="464" y1="292.2578" y2="292.2578"/><polygon fill="#181818" points="433,288.2578,423,292.2578,433,296.2578,429,292.2578" style="stroke:#181818;stroke-width:1.0;"/><text fill="#000000" font-family="sans-serif" font-size="13" lengthAdjust="spacing" textLength="78" x="429" y="274.1919">&#21021;&#26399;&#23550;&#24540;&#23455;&#26045;</text><polygon fill="#181818" points="47,317.3906,37,321.3906,47,325.3906,43,321.3906" style="stroke:#181818;stroke-width:1.0;"/><line style="stroke:#181818;stroke-width:1.0;" x1="41" x2="421" y1="321.3906" y2="321.3906"/><text fill="#000000" font-family="sans-serif" font-size="13" lengthAdjust="spacing" textLength="52" x="53" y="316.3247">&#29366;&#27841;&#22577;&#21578;</text><path d="M370,336.3906 L434,336.3906 L434,343.5234 L424,353.5234 L370,353.5234 L370,336.3906 " fill="#EEEEEE" style="stroke:#000000;stroke-width:1.5;"/><rect fill="none" height="75.3984" style="stroke:#000000;stroke-width:1.5;" width="303" x="370" y="336.3906"/><text fill="#000000" font-family="sans-serif" font-size="13" font-weight="bold" lengthAdjust="spacing" textLength="19" x="385" y="349.4575">alt</text><text fill="#000000" font-family="sans-serif" font-size="11" font-weight="bold" lengthAdjust="spacing" textLength="87" x="449" y="348.6011">[&#39640;&#20778;&#20808;&#24230;&#12398;&#22580;&#21512;]</text><polygon fill="#181818" points="567,370.6563,577,374.6563,567,378.6563,571,374.6563" style="stroke:#181818;stroke-width:1.0;"/><line style="stroke:#181818;stroke-width:1.0;" x1="422" x2="573" y1="374.6563" y2="374.6563"/><text fill="#000000" font-family="sans-serif" font-size="13" lengthAdjust="spacing" textLength="104" x="429" y="369.5903">&#12456;&#12473;&#12459;&#12524;&#12540;&#12471;&#12519;&#12531;</text><polygon fill="#181818" points="433,399.7891,423,403.7891,433,407.7891,429,403.7891" style="stroke:#181818;stroke-width:1.0;"/><line style="stroke:#181818;stroke-width:1.0;" x1="427" x2="578" y1="403.7891" y2="403.7891"/><text fill="#000000" font-family="sans-serif" font-size="13" lengthAdjust="spacing" textLength="52" x="439" y="398.7231">&#23554;&#38272;&#23550;&#24540;</text><polygon fill="#181818" points="279,435.9219,269,439.9219,279,443.9219,275,439.9219" style="stroke:#181818;stroke-width:1.0;"/><line style="stroke:#181818;stroke-width:1.0;" x1="273" x2="421" y1="439.9219" y2="439.9219"/><text fill="#000000" font-family="sans-serif" font-size="13" lengthAdjust="spacing" textLength="104" x="285" y="434.856">&#29366;&#27841;&#12514;&#12491;&#12479;&#12522;&#12531;&#12464;</text><polygon fill="#181818" points="47,465.0547,37,469.0547,47,473.0547,43,469.0547" style="stroke:#181818;stroke-width:1.0;"/><line style="stroke:#181818;stroke-width:1.0;" x1="41" x2="421" y1="469.0547" y2="469.0547"/><text fill="#000000" font-family="sans-serif" font-size="13" lengthAdjust="spacing" textLength="52" x="53" y="463.9888">&#23450;&#26399;&#22577;&#21578;</text><path d="M370,484.0547 L434,484.0547 L434,491.1875 L424,501.1875 L370,501.1875 L370,484.0547 " fill="#EEEEEE" style="stroke:#000000;stroke-width:1.5;"/><rect fill="none" height="75.3984" style="stroke:#000000;stroke-width:1.5;" width="303" x="370" y="484.0547"/><text fill="#000000" font-family="sans-serif" font-size="13" font-weight="bold" lengthAdjust="spacing" textLength="19" x="385" y="497.1216">alt</text><text fill="#000000" font-family="sans-serif" font-size="11" font-weight="bold" lengthAdjust="spacing" textLength="88" x="449" y="496.2651">[SLA&#36949;&#21453;&#30330;&#29983;&#26178;]</text><polygon fill="#181818" points="567,518.3203,577,522.3203,567,526.3203,571,522.3203" style="stroke:#181818;stroke-width:1.0;"/><line style="stroke:#181818;stroke-width:1.0;" x1="422" x2="573" y1="522.3203" y2="522.3203"/><text fill="#000000" font-family="sans-serif" font-size="13" lengthAdjust="spacing" textLength="104" x="429" y="517.2544">&#12456;&#12473;&#12459;&#12524;&#12540;&#12471;&#12519;&#12531;</text><polygon fill="#181818" points="433,547.4531,423,551.4531,433,555.4531,429,551.4531" style="stroke:#181818;stroke-width:1.0;"/><line style="stroke:#181818;stroke-width:1.0;" x1="427" x2="578" y1="551.4531" y2="551.4531"/><text fill="#000000" font-family="sans-serif" font-size="13" lengthAdjust="spacing" textLength="52" x="439" y="546.3872">&#23550;&#31574;&#23455;&#26045;</text><polygon fill="#181818" points="47,583.5859,37,587.5859,47,591.5859,43,587.5859" style="stroke:#181818;stroke-width:1.0;"/><line style="stroke:#181818;stroke-width:1.0;" x1="41" x2="421" y1="587.5859" y2="587.5859"/><text fill="#000000" font-family="sans-serif" font-size="13" lengthAdjust="spacing" textLength="130" x="53" y="582.52">&#12452;&#12531;&#12471;&#12487;&#12531;&#12488;&#35299;&#27770;&#22577;&#21578;</text><polygon fill="#181818" points="410,612.7188,420,616.7188,410,620.7188,414,616.7188" style="stroke:#181818;stroke-width:1.0;"/><line style="stroke:#181818;stroke-width:1.0;" x1="36" x2="416" y1="616.7188" y2="616.7188"/><text fill="#000000" font-family="sans-serif" font-size="13" lengthAdjust="spacing" textLength="156" x="43" y="611.6528">&#30906;&#35469;&#12362;&#12424;&#12403;&#12501;&#12451;&#12540;&#12489;&#12496;&#12483;&#12463;</text><!--SRC=[jLFDRjf06BplK-mBv0KuLAgKtjfJsWUmY1LPfGQ1bNEy7n4kD2fj0Yg12W8H9D10W3HLQO67-RB-UOjwbn_RG8xrOUNLpipEpEuQcf5GAR9hX36oNmWvyGCM7ypul8PGGhX3-4k84ZUIQOhGzcV87lsHAXdwBgEcLqlifrY2SsI_XOm_ie707AZfOoskxgkPzoIbf0qjhgKKtQ1EjUMsomXPIUi9w9kahlbQcduKGTg5KpuzHp0biY6GRrNbGmI3x4PksKFu8ItwMJeoIuZrAXDN4egX9NN99y8-tNiHjXZRKOPpCUPVyYHm9pX28KRTN9SNIjkKfsdDjeea91nmTcnG-UDz6X6n7C3uTEZLvyuWowiZD6zujijFBJvf8_lgtfQUPbURUEkxNQil3extwtPvkWQ8d37gv1_jiSaRGn66A0c3UhrlWQpPvuq7NhG8zRyLCzfOxDcQ9IaA3ZcxPrxvPE6CgFeXMHiBAbtPGsWY593D4RgofVkD5Bn_AMA6KXoyVkcP9VxvpAbCd8kwNM7_8S9WvjoLbxL68YnSRP-fssdPmydIv-gYBSISviJjdg6PHsQXEHQlZBNaBVs8K4G0_-MGVm00]--></g></svg>